inDegrees=no
num_controls=7
num_derivatives=13
num_iterations=84
num_multipliers=7
num_parameters=0
num_slacks=7
num_states=26
objective=0.454576
objective_accelerations=0.044005
objective_balance=0.000778
objective_effort=0.036125
objective_height=0.367579
objective_ligament=0.006089
solver_duration=934.878278
status=Solve_Succeeded
success=true
DataType=double
version=3
OpenSimVersion=4.5
endheader
time	/jointset/ground_pelvis/pelvis_tilt/value	/jointset/ground_pelvis/pelvis_tx/value	/jointset/ground_pelvis/pelvis_ty/value	/jointset/hip_r/hip_flexion_r/value	/jointset/hip_r/hip_adduction_r/value	/jointset/hip_r/hip_rotation_r/value	/jointset/back/lumbar_extension/value	/jointset/patellofemoral_r/patellar_flexion_r/value	/jointset/knee_r/knee_flexion_r/value	/jointset/knee_r/knee_adduction_r/value	/jointset/knee_r/knee_rotation_r/value	/jointset/ankle_r/ankle_angle_r/value	/jointset/subtalar_r/subtalar_angle_r/value	/jointset/ground_pelvis/pelvis_tilt/speed	/jointset/ground_pelvis/pelvis_tx/speed	/jointset/ground_pelvis/pelvis_ty/speed	/jointset/hip_r/hip_flexion_r/speed	/jointset/hip_r/hip_adduction_r/speed	/jointset/hip_r/hip_rotation_r/speed	/jointset/back/lumbar_extension/speed	/jointset/patellofemoral_r/patellar_flexion_r/speed	/jointset/knee_r/knee_flexion_r/speed	/jointset/knee_r/knee_adduction_r/speed	/jointset/knee_r/knee_rotation_r/speed	/jointset/ankle_r/ankle_angle_r/speed	/jointset/subtalar_r/subtalar_angle_r/speed	/forceset/tau_hip_flexion_r	/forceset/tau_hip_adduction_r	/forceset/tau_hip_rotation_r	/forceset/tau_knee_flexion_r	/forceset/tau_ankle_angle_r	/forceset/tau_subtalar_angle_r	/forceset/tau_lumbar_extension	lambda_cid13_p0	lambda_cid14_p0	lambda_cid14_p1	lambda_cid14_p2	lambda_cid14_p3	lambda_cid14_p4	lambda_cid14_p5	/jointset/ground_pelvis/pelvis_tilt/accel	/jointset/ground_pelvis/pelvis_tx/accel	/jointset/ground_pelvis/pelvis_ty/accel	/jointset/hip_r/hip_flexion_r/accel	/jointset/hip_r/hip_adduction_r/accel	/jointset/hip_r/hip_rotation_r/accel	/jointset/back/lumbar_extension/accel	/jointset/patellofemoral_r/patellar_flexion_r/accel	/jointset/knee_r/knee_flexion_r/accel	/jointset/knee_r/knee_adduction_r/accel	/jointset/knee_r/knee_rotation_r/accel	/jointset/ankle_r/ankle_angle_r/accel	/jointset/subtalar_r/subtalar_angle_r/accel	gamma_cid13_p0	gamma_cid14_p0	gamma_cid14_p1	gamma_cid14_p2	gamma_cid14_p3	gamma_cid14_p4	gamma_cid14_p5
1	-0.2077275434431877	-0.000342279926556736	0.6608216160236807	1.333574116595794	-0.2547182354899801	0.09415073689594007	-0.7853896073721841	1.463866416418001	1.463866416417993	0.04951326853644519	0.1744806392555178	0.4362557705848115	0.1403363167689504	0.07115470210517855	0.00531511108203199	0.01416020153691463	-0.09974648267549982	-0.001228367016023791	-0.005151245656362376	8.839546780277184e-06	-0.01527492497249556	-0.01527492497249622	0.0005019756253190025	-0.001287461415697131	0.01326788142138473	0.003853619755153864	-0.3151445139782597	0.02450108200623154	0.05060752011157569	-0.4555536126203233	-0.03240169301252369	-0.01686156333697961	0.3455957832289102	-0.04066024301465731	-62.56500360897037	-21.24909051686651	7.203712859105524	9.140717766217957	-758.4445659433848	66.51634079098162	1.31174615331289	0.1322175525333233	1.635787467423422	-5.039398580811562	-0.04313333272415665	-1.45551180129044	-0.07484303817398694	-4.702217415868263	-4.702217415868271	0.06138578270266076	-0.06895730340786231	-1.195577863930001	-0.5888452791847594	-6.13046773761741e-10	-4.255370317498681e-09	9.578300635452951e-09	-5.120607241791455e-10	6.071026308758043e-09	-9.388319067155922e-09	-7.216751494448738e-10
1.01	-0.2069511039005882	-0.0002823151714803503	0.6610449865527877	1.332325089411772	-0.2547328382314885	0.09402605778986188	-0.7853909856480137	1.463478490234392	1.463478490234373	0.04952122962046702	0.1744647457602254	0.4363288739325096	0.1403451991321127	0.08413313136362675	0.006701259068763614	0.03052552888892893	-0.1501138381974092	-0.001719666967399623	-0.01981364925550031	-0.0001367866252919969	-0.062340141377189	-0.06234014137719022	0.001111792544158315	-0.001825118645226725	0.001371269437301339	-0.002119627781678876	-0.3161450101527876	0.02458525192986434	0.05060699963987963	-0.4556577397234369	-0.03275737276839471	-0.01682816240593759	0.3468857716507973	-0.04065440820435987	-62.73193923011512	-21.26318885140821	7.205246650491294	8.942348204100229	-759.467819791915	66.52842656054879	1.290880347943693	0.1453283451958018	1.638646029504149	-5.043636767229954	-0.05625093525116255	-1.475969150327148	0.03773380828025842	-4.713147969347201	-4.713147969347203	0.06401583472198383	-0.03625232329961015	-1.183932438929052	-0.6079339952437572	-1.132550404176625e-09	-7.021781266683163e-09	1.983854714008719e-08	-5.86233414831961e-09	1.022312047595303e-08	-1.50932930614728e-08	8.158308491287798e-09
1.02	-0.2060448822582494	-0.0002077859518455542	0.6614323584875025	1.330570742126615	-0.2547531784942968	0.09375388174557314	-0.7853893889425868	1.462619017043421	1.462619017043419	0.0495359361113162	0.1744454592145194	0.4362835652459407	0.1402930751190443	0.09711112205539342	0.008228003993714069	0.04696048265751558	-0.2008105028932678	-0.002375871275046028	-0.03465063329870288	0.0006038358028035088	-0.1095843264449583	-0.1095843264449597	0.001851056992894216	-0.001966071497718254	-0.01041452547804436	-0.008347655490958904	-0.3171455063275131	0.02466942185348324	0.05060647916820242	-0.4557618668265599	-0.03311305252424362	-0.01679476147491109	0.3481757600724973	-0.040654020434675	-62.90664020767124	-21.27602264132869	7.203581629211404	8.751874372665224	-760.632427514371	66.54055045594401	1.311658439976555	0.1603369401771307	1.649712750737894	-5.105260415601438	-0.07611420397829505	-1.490427890103386	0.1024066818601277	-4.738011148483413	-4.738011148483346	0.08727528868198937	0.01038357199979786	-1.17341445018239	-0.6398013136742283	-2.297393806594228e-09	-5.828210891817145e-09	1.882972248780637e-08	-1.316579465233612e-08	7.228530557772102e-09	-1.452796518978319e-08	2.767389020527733e-09
1.03	-0.2050102919394201	-0.0001173695343191801	0.6619841141039768	1.32830979077137	-0.254780806522805	0.09333274616934058	-0.7853743371638949	1.461286508564491	1.461286508564484	0.0495587396272081	0.1744266138485369	0.4361206667394114	0.1401774655631927	0.1096625161956438	0.009870475552933324	0.0633704275933098	-0.2512298283617038	-0.003166690722209633	-0.04957756778814506	0.002720367319336105	-0.1569167659477001	-0.156916765947702	0.002735715093063714	-0.001751708128175323	-0.02217530871660349	-0.01480850478876167	-0.3178470545328758	0.02470667745975189	0.0505766163340587	-0.4553224555304732	-0.03368085475440684	-0.01669906861894907	0.3492700136871305	-0.04067214530269104	-63.10904214157917	-21.25004678375429	7.176760361307937	8.668101559167273	-761.2377576696558	66.54550260591778	1.205215992678975	0.1684824839456108	1.633600632417961	-4.987778034685046	-0.08311129222471833	-1.493994261650172	0.3133534970379017	-4.730769141155945	-4.730769141155998	0.09297579443890966	0.0346532032377733	-1.178931266645022	-0.6543637166966737	-3.468822308726148e-09	-4.594232544256711e-09	1.770590731351614e-08	-2.048918563675954e-08	4.161015291781173e-09	-1.389865464599144e-08	-2.769151910553768e-09
